<svg xmlns="http://www.w3.org/2000/svg" xmlns:xlink="http://www.w3.org/1999/xlink" width="50" height="50" fill="none" viewBox="0 0 50 50"><linearGradient id="a" x1="26.954" x2="26.954" y1="0" y2="50" gradientUnits="userSpaceOnUse"><stop offset="0" stop-color="#ff9a61"/><stop offset="1" stop-color="#e36425"/></linearGradient><linearGradient id="b" x1="23.366" x2="23.366" y1="0" y2="50" gradientUnits="userSpaceOnUse"><stop offset="0" stop-color="#ffb341"/><stop offset="1" stop-color="#ee7c3e"/></linearGradient><linearGradient id="c" x1="5.484" x2="5.484" y1="0" y2="50" gradientUnits="userSpaceOnUse"><stop offset="0" stop-color="#614b37"/><stop offset="1" stop-color="#651b30"/></linearGradient><path fill="url(#a)" d="m43.2133 50h-36.62513v-50h36.62513c2.2687 0 4.1074 1.83867 4.1074 4.10735v41.78525c-.0149 2.2687-1.8535 4.1074-4.1074 4.1074z"/><path fill="#fff" d="m42.724 49.2141h-8.5558v-48.35413h8.5558c1.9276 0 3.4994 1.55694 3.4994 3.49941v41.35532c-.0149 1.9276-1.5718 3.4994-3.4994 3.4994z"/><path fill="url(#b)" d="m39.6251 50h-36.6251v-50h36.6251c2.2687 0 4.1074 1.83867 4.1074 4.10735v41.78525c0 2.2687-1.8387 4.1074-4.1074 4.1074z"/><path fill="url(#c)" d="m7.96738 0h-4.96738v50h4.96738z"/><g fill="#fff"><path d="m24.0429 23.361c1.6756 0 3.0339-1.3584 3.0339-3.034 0-1.6755-1.3583-3.0339-3.0339-3.0339s-3.0339 1.3584-3.0339 3.0339c0 1.6756 1.3583 3.034 3.0339 3.034z"/><path d="m19.8312 31.8653c-1.8014 0-3.0068-1.9368-2.1265-3.5215 1.2326-2.2213 3.6164-3.7383 6.3388-3.7383s5.1062 1.5035 6.3387 3.7383c.8804 1.5711-.3251 3.5215-2.1265 3.5215z"/></g></svg>