<svg xmlns="http://www.w3.org/2000/svg" width="384" height="216" fill="none" viewBox="0 0 384 216"><g clip-path="url(#clip0_13244_209258)"><rect width="384" height="216" fill="#F5F4F2" rx="8"/><g clip-path="url(#clip1_13244_209258)"><rect width="658.836" height="499.51" fill="#F7F5FF" transform="translate(-134)"/><mask id="mask0_13244_209258" width="659" height="500" x="-134" y="0" maskUnits="userSpaceOnUse" style="mask-type:alpha"><rect width="658.836" height="499.51" x="-134" fill="#30F"/></mask><g mask="url(#mask0_13244_209258)"><g filter="url(#filter0_ii_13244_209258)"><path fill="url(#paint0_radial_13244_209258)" d="M1182.24 274.233L310.251 -597.758L149.498 -437.005L423.038 -163.465C512.609 -73.8941 512.609 71.3293 423.038 160.901C333.467 250.472 188.244 250.472 98.6724 160.901L17.9478 80.1759C-24.7706 42.8303 -89.733 44.514 -130.446 85.2268L-366.693 321.475L384.154 1072.32L1182.24 274.233Z"/><path fill="url(#paint1_radial_13244_209258)" d="M-451.979 236.189L-215.732 -0.059021C-126.16 -89.6301 19.063 -89.6301 108.634 -0.059021L108.459 0.115723L183.958 75.6146C226.427 118.084 295.283 118.084 337.752 75.6147C380.221 33.1456 380.221 -35.7103 337.752 -78.1794L64.2121 -351.72L-487.838 200.331L-451.979 236.189Z"/></g><rect width="658.836" height="499.51" x="-134" fill="url(#paint2_linear_13244_209258)"/></g></g><g filter="url(#filter1_d_13244_209258)"><path fill="#fff" d="M140 79.7283C140 66.0712 151.071 55 164.728 55H220.272C233.929 55 245 66.0712 245 79.7283V135.272C245 148.929 233.929 160 220.272 160H164.728C151.071 160 140 148.929 140 135.272V79.7283Z"/><path fill="#6D4AFF" d="M159.402 83.3505C159.402 82.0615 160.904 81.3563 161.896 82.1798L188.125 103.962C190.661 106.068 194.339 106.068 196.875 103.962L223.104 82.1798C224.095 81.3563 225.598 82.0615 225.598 83.3505V128.043C225.598 131.825 222.532 134.891 218.75 134.891H166.25C162.468 134.891 159.402 131.825 159.402 128.043V83.3505Z"/><path fill="url(#paint3_linear_13244_209258)" fill-rule="evenodd" d="M201.437 100.168L201.44 100.171L188.231 111.84C185.981 113.827 182.617 113.877 180.309 111.958L159.402 94.5701V83.3453C159.402 82.0563 160.904 81.3511 161.896 82.1746L188.125 103.957C190.661 106.063 194.339 106.063 196.875 103.957L201.437 100.168Z" clip-rule="evenodd"/><path fill="url(#paint4_linear_13244_209258)" fill-rule="evenodd" d="M211.521 91.7985V134.891H218.75C222.532 134.891 225.598 131.825 225.598 128.043V83.3506C225.598 82.0616 224.095 81.3562 223.104 82.1799L211.521 91.7985Z" clip-rule="evenodd"/></g></g><defs><filter id="filter0_ii_13244_209258" width="1689.39" height="1682.09" x="-507.152" y="-597.758" color-interpolation-filters="sRGB" filterUnits="userSpaceOnUse"><feFlood flood-opacity="0" result="BackgroundImageFix"/><feBlend in="SourceGraphic" in2="BackgroundImageFix" mode="normal" result="shape"/><feColorMatrix in="SourceAlpha" result="hardAlpha" type="matrix" values="0 0 0 0 0 0 0 0 0 0 0 0 0 0 0 0 0 0 127 0"/><feOffset dx="-35.1" dy="12.011"/><feGaussianBlur stdDeviation="9.657"/><feComposite in2="hardAlpha" k2="-1" k3="1" operator="arithmetic"/><feColorMatrix type="matrix" values="0 0 0 0 0.427451 0 0 0 0 0.290196 0 0 0 0 1 0 0 0 0.6 0"/><feBlend in2="shape" mode="normal" result="effect1_innerShadow_13244_209258"/><feColorMatrix in="SourceAlpha" result="hardAlpha" type="matrix" values="0 0 0 0 0 0 0 0 0 0 0 0 0 0 0 0 0 0 127 0"/><feOffset dx="-17.201" dy="15.217"/><feComposite in2="hardAlpha" k2="-1" k3="1" operator="arithmetic"/><feColorMatrix type="matrix" values="0 0 0 0 1 0 0 0 0 1 0 0 0 0 1 0 0 0 0.5 0"/><feBlend in2="effect1_innerShadow_13244_209258" mode="normal" result="effect2_innerShadow_13244_209258"/></filter><filter id="filter1_d_13244_209258" width="135" height="135" x="125" y="45.2" color-interpolation-filters="sRGB" filterUnits="userSpaceOnUse"><feFlood flood-opacity="0" result="BackgroundImageFix"/><feColorMatrix in="SourceAlpha" result="hardAlpha" type="matrix" values="0 0 0 0 0 0 0 0 0 0 0 0 0 0 0 0 0 0 127 0"/><feOffset dy="5.2"/><feGaussianBlur stdDeviation="7.5"/><feColorMatrix type="matrix" values="0 0 0 0 0.615686 0 0 0 0 0.529412 0 0 0 0 1 0 0 0 0.18 0"/><feBlend in2="BackgroundImageFix" mode="normal" result="effect1_dropShadow_13244_209258"/><feBlend in="SourceGraphic" in2="effect1_dropShadow_13244_209258" mode="normal" result="shape"/></filter><radialGradient id="paint0_radial_13244_209258" cx="0" cy="0" r="1" gradientTransform="translate(629.706 0.845715) rotate(135) scale(886.986 788.648)" gradientUnits="userSpaceOnUse"><stop stop-color="#D0CAFF"/><stop offset=".172" stop-color="#D0CAFF"/><stop offset="1" stop-color="#fff" stop-opacity=".3"/></radialGradient><radialGradient id="paint1_radial_13244_209258" cx="0" cy="0" r="1" gradientTransform="translate(629.706 0.845715) rotate(135) scale(886.986 788.648)" gradientUnits="userSpaceOnUse"><stop stop-color="#D0CAFF"/><stop offset=".172" stop-color="#D0CAFF"/><stop offset="1" stop-color="#fff" stop-opacity=".3"/></radialGradient><linearGradient id="paint2_linear_13244_209258" x1="195.418" x2="195.418" y1="249.755" y2="499.51" gradientUnits="userSpaceOnUse"><stop stop-color="#F7F5FF" stop-opacity="0"/><stop offset="1" stop-color="#F7F5FF"/></linearGradient><linearGradient id="paint3_linear_13244_209258" x1="209.334" x2="194.246" y1="107.78" y2="43.365" gradientUnits="userSpaceOnUse"><stop stop-color="#E2DBFF"/><stop offset="1" stop-color="#6D4AFF"/></linearGradient><linearGradient id="paint4_linear_13244_209258" x1="245.761" x2="194.269" y1="169.796" y2="59.799" gradientUnits="userSpaceOnUse"><stop offset=".271" stop-color="#E2DBFF"/><stop offset="1" stop-color="#6D4AFF"/></linearGradient><clipPath id="clip0_13244_209258"><rect width="384" height="216" fill="#fff" rx="8"/></clipPath><clipPath id="clip1_13244_209258"><rect width="658.836" height="499.51" fill="#fff" transform="translate(-134)"/></clipPath></defs></svg>